REM DIRINDEX 1\6,1\2\7,1\2\8,1\2\9,1\3\10,1\3\11,1\4\12,1\4\13,1\4\14,1\5\15,1\5\16,1\5\17
REM DIRNAME cjc040,folder01,folder02,folder03,folder04,folder05,folder06,folder07,folder08,folder09,folder10,folder11,folder12,folder13,folder14,folder15,folder16
TITLE ""
FILE "P2Q_j_1352-1365.mp3" MP3
  TRACK 01 AUDIO
    TITLE "12:cjc040_0801"
    INDEX 01 00:00:00
  TRACK 02 AUDIO
    TITLE "0:"
    INDEX 01 00:01:22
  TRACK 03 AUDIO
    TITLE "13:cjc040_0802"
    INDEX 01 00:02:00
  TRACK 04 AUDIO
    TITLE "0:"
    INDEX 01 00:05:63
  TRACK 05 AUDIO
    TITLE "14:cjc040_0803"
    INDEX 01 00:06:33
  TRACK 06 AUDIO
    TITLE "0:"
    INDEX 01 00:09:59
  TRACK 07 AUDIO
    TITLE "12:cjc040_0804"
    INDEX 01 00:10:37
  TRACK 08 AUDIO
    TITLE "0:"
    INDEX 01 00:12:01
  TRACK 09 AUDIO
    TITLE "13:cjc040_0805"
    INDEX 01 00:12:60
  TRACK 10 AUDIO
    TITLE "0:"
    INDEX 01 00:14:64
  TRACK 11 AUDIO
    TITLE "14:cjc040_0806"
    INDEX 01 00:15:38
  TRACK 12 AUDIO
    TITLE "0:"
    INDEX 01 00:21:23
  TRACK 13 AUDIO
    TITLE "12:cjc040_0807"
    INDEX 01 00:22:01
  TRACK 14 AUDIO
    TITLE "0:"
    INDEX 01 00:24:29
  TRACK 15 AUDIO
    TITLE "13:cjc040_0808"
    INDEX 01 00:25:11
  TRACK 16 AUDIO
    TITLE "0:"
    INDEX 01 00:27:16
  TRACK 17 AUDIO
    TITLE "14:cjc040_0809"
    INDEX 01 00:27:73
  TRACK 18 AUDIO
    TITLE "0:"
    INDEX 01 00:32:64
  TRACK 19 AUDIO
    TITLE "12:cjc040_0810"
    INDEX 01 00:33:40
  TRACK 20 AUDIO
    TITLE "0:"
    INDEX 01 00:35:12
  TRACK 21 AUDIO
    TITLE "13:cjc040_0811"
    INDEX 01 00:35:64
  TRACK 22 AUDIO
    TITLE "0:"
    INDEX 01 00:37:38
  TRACK 23 AUDIO
    TITLE "14:cjc040_0812"
    INDEX 01 00:38:16
  TRACK 24 AUDIO
    TITLE "0:"
    INDEX 01 00:42:27
  TRACK 25 AUDIO
    TITLE "12:cjc040_0813"
    INDEX 01 00:43:07
  TRACK 26 AUDIO
    TITLE "0:"
    INDEX 01 00:44:54
  TRACK 27 AUDIO
    TITLE "13:cjc040_0814"
    INDEX 01 00:45:33
  TRACK 28 AUDIO
    TITLE "0:"
    INDEX 01 00:49:02
  TRACK 29 AUDIO
    TITLE "14:cjc040_0815"
    INDEX 01 00:49:59
  TRACK 30 AUDIO
    TITLE "0:"
    INDEX 01 00:54:38
  TRACK 31 AUDIO
    TITLE "12:cjc040_0816"
    INDEX 01 00:55:18
  TRACK 32 AUDIO
    TITLE "0:"
    INDEX 01 00:57:17
  TRACK 33 AUDIO
    TITLE "13:cjc040_0817"
    INDEX 01 00:57:66
  TRACK 34 AUDIO
    TITLE "0:"
    INDEX 01 00:59:73
  TRACK 35 AUDIO
    TITLE "14:cjc040_0818"
    INDEX 01 01:00:51
  TRACK 36 AUDIO
    TITLE "0:"
    INDEX 01 01:05:60
  TRACK 37 AUDIO
    TITLE "12:cjc040_0819"
    INDEX 01 01:06:40
  TRACK 38 AUDIO
    TITLE "0:"
    INDEX 01 01:08:13
  TRACK 39 AUDIO
    TITLE "13:cjc040_0820"
    INDEX 01 01:08:68
  TRACK 40 AUDIO
    TITLE "0:"
    INDEX 01 01:10:57
  TRACK 41 AUDIO
    TITLE "14:cjc040_0821"
    INDEX 01 01:11:31
  TRACK 42 AUDIO
    TITLE "0:"
    INDEX 01 01:17:22
  TRACK 43 AUDIO
    TITLE "12:cjc040_0822"
    INDEX 01 01:18:02
  TRACK 44 AUDIO
    TITLE "0:"
    INDEX 01 01:19:28
  TRACK 45 AUDIO
    TITLE "13:cjc040_0823"
    INDEX 01 01:20:08
  TRACK 46 AUDIO
    TITLE "0:"
    INDEX 01 01:22:15
  TRACK 47 AUDIO
    TITLE "14:cjc040_0824"
    INDEX 01 01:22:64
  TRACK 48 AUDIO
    TITLE "0:"
    INDEX 01 01:29:39
  TRACK 49 AUDIO
    TITLE "12:cjc040_0825"
    INDEX 01 01:30:20
  TRACK 50 AUDIO
    TITLE "0:"
    INDEX 01 01:31:38
  TRACK 51 AUDIO
    TITLE "13:cjc040_0826"
    INDEX 01 01:32:19
  TRACK 52 AUDIO
    TITLE "0:"
    INDEX 01 01:33:44
  TRACK 53 AUDIO
    TITLE "14:cjc040_0827"
    INDEX 01 01:34:26
  TRACK 54 AUDIO
    TITLE "0:"
    INDEX 01 01:42:10
  TRACK 55 AUDIO
    TITLE "12:cjc040_0828"
    INDEX 01 01:42:67
  TRACK 56 AUDIO
    TITLE "0:"
    INDEX 01 01:44:38
  TRACK 57 AUDIO
    TITLE "13:cjc040_0829"
    INDEX 01 01:45:18
  TRACK 58 AUDIO
    TITLE "0:"
    INDEX 01 01:47:37
  TRACK 59 AUDIO
    TITLE "14:cjc040_0830"
    INDEX 01 01:48:12
  TRACK 60 AUDIO
    TITLE "0:"
    INDEX 01 01:55:56
  TRACK 61 AUDIO
    TITLE "12:cjc040_0831"
    INDEX 01 01:56:39
  TRACK 62 AUDIO
    TITLE "0:"
    INDEX 01 01:59:01
  TRACK 63 AUDIO
    TITLE "13:cjc040_0832"
    INDEX 01 01:59:59
  TRACK 64 AUDIO
    TITLE "0:"
    INDEX 01 02:01:72
  TRACK 65 AUDIO
    TITLE "14:cjc040_0833"
    INDEX 01 02:02:48
  TRACK 66 AUDIO
    TITLE "0:"
    INDEX 01 02:10:20
  TRACK 67 AUDIO
    TITLE "12:cjc040_0834"
    INDEX 01 02:11:02
  TRACK 68 AUDIO
    TITLE "0:"
    INDEX 01 02:12:62
  TRACK 69 AUDIO
    TITLE "13:cjc040_0835"
    INDEX 01 02:13:44
  TRACK 70 AUDIO
    TITLE "0:"
    INDEX 01 02:15:43
  TRACK 71 AUDIO
    TITLE "14:cjc040_0836"
    INDEX 01 02:16:15
  TRACK 72 AUDIO
    TITLE "0:"
    INDEX 01 02:21:08
  TRACK 73 AUDIO
    TITLE "12:cjc040_0837"
    INDEX 01 02:21:63
  TRACK 74 AUDIO
    TITLE "0:"
    INDEX 01 02:23:17
  TRACK 75 AUDIO
    TITLE "13:cjc040_0838"
    INDEX 01 02:24:06
  TRACK 76 AUDIO
    TITLE "0:"
    INDEX 01 02:26:07
  TRACK 77 AUDIO
    TITLE "14:cjc040_0839"
    INDEX 01 02:26:58
  TRACK 78 AUDIO
    TITLE "0:"
    INDEX 01 02:29:37
  TRACK 79 AUDIO
    TITLE "12:cjc040_0840"
    INDEX 01 02:30:15
  TRACK 80 AUDIO
    TITLE "0:"
    INDEX 01 02:31:36
  TRACK 81 AUDIO
    TITLE "13:cjc040_0841"
    INDEX 01 02:32:16
  TRACK 82 AUDIO
    TITLE "0:"
    INDEX 01 02:34:01
  TRACK 83 AUDIO
    TITLE "14:cjc040_0842"
    INDEX 01 02:34:54
  TRACK 84 AUDIO
    TITLE "0:"
    INDEX 01 02:38:08
